# xmcd
#
# Track frame offsets:
#	150
#	19988
#	38213
#	53766
#	69416
#	84578
#	101523
#	116736
#	130593
#	148841
#	163836
#	176255
#	193518
#	208157
#	227714
#	244140
#	259469
#	273199
#	291247
#	305905
#
# Disc length: 4288 seconds
#
# Revision: 1
# Processed by: cddbd v1.5.2PL0 Copyright (c) Steve Scherf et al.
# Submitted via: audiograbber 1.83.01
#
DISCID=2d10be14
DTITLE=Wariner Steve - Heart Trouble CD2
DYEAR=2015
DGENRE=Country
TTITLE0=Why Do Heroes Die So Young
TTITLE1=You Can Dream Of Me
TTITLE2=She's Crazy For Leavin'
TTITLE3=In Love And Out Of Danger
TTITLE4=It's A Crazy World
TTITLE5=Somewhere Between Old and New York
TTITLE6=The Flower That Shattered The Stone
TTITLE7=I Can See Arkansas
TTITLE8=Where Fools Are Kings
TTITLE9=Language Of Love
TTITLE10=She's Leaving Me All Over Town
TTITLE11=The Heartland
TTITLE12=While I'm Holding You Tonight
TTITLE13=Caught Between Your Duty And Your Dream
TTITLE14=When Times Were Hard
TTITLE15=You Can't Cut Me Any Deeper
TTITLE16=I Let A Keeper Get Away
TTITLE17=If I Could Make A Livin' (Out Of Lovin' You)
TTITLE18=Natural History
TTITLE19=The Loser Wins
EXTD=
EXTT0=
EXTT1=
EXTT2=
EXTT3=
EXTT4=
EXTT5=
EXTT6=
EXTT7=
EXTT8=
EXTT9=
EXTT10=
EXTT11=
EXTT12=
EXTT13=
EXTT14=
EXTT15=
EXTT16=
EXTT17=
EXTT18=
EXTT19=
PLAYORDER=
